<svg width="162" height="44" viewBox="0 0 162 44" fill="none" xmlns="http://www.w3.org/2000/svg">
<rect x="26" y="14" width="20" height="20" rx="6" fill="#EA1D2C"/>
<circle cx="36" cy="24" r="7.24138" fill="white"/>
<path d="M31.3602 24.0219C31.3704 26.4711 33.3767 28.4395 35.8521 28.4286C38.8344 28.4156 43.2894 23.9696 43.2894 23.9696C43.2894 23.9696 38.7975 19.5629 35.8152 19.5759C33.3399 19.5868 31.35 21.5726 31.3602 24.0219ZM32.8513 24.0154C32.8445 22.3776 34.1811 21.0586 35.8213 21.0514C37.4765 21.0441 38.8091 22.3515 38.8159 23.9892C38.8227 25.6122 37.5011 26.9459 35.8459 26.9532C34.2056 26.9604 32.8581 25.6383 32.8513 24.0154Z" fill="#EA1D2C"/>
<circle cx="35.6552" cy="24.3448" r="3.44828" fill="#EA1D2C"/>
<path d="M10.115 41.63C9.18167 41.63 8.225 41.595 7.245 41.525C6.265 41.455 5.36667 41.3617 4.55 41.245V36.52C5.36667 36.6367 6.265 36.73 7.245 36.8C8.24833 36.8933 9.15833 36.94 9.975 36.94C11.4917 36.94 12.7167 36.765 13.65 36.415C14.6067 36.065 15.3067 35.5283 15.75 34.805C16.1933 34.105 16.415 33.195 16.415 32.075V28.26L17.43 26.02C17.3833 27.7233 17.045 29.1817 16.415 30.395C15.8083 31.6083 14.9567 32.5417 13.86 33.195C12.7633 33.825 11.4567 34.14 9.94 34.14C8.63333 34.14 7.44333 33.9067 6.37 33.44C5.32 32.95 4.42167 32.2733 3.675 31.41C2.92833 30.5467 2.35667 29.5433 1.96 28.4C1.56333 27.2333 1.365 25.9733 1.365 24.62V23.815C1.365 22.4617 1.575 21.2017 1.995 20.035C2.415 18.8683 3.02167 17.8533 3.815 16.99C4.60833 16.1267 5.55333 15.4617 6.65 14.995C7.74667 14.505 8.96 14.26 10.29 14.26C11.83 14.26 13.16 14.5983 14.28 15.275C15.4233 15.9517 16.3217 16.9433 16.975 18.25C17.6283 19.5567 17.9783 21.1317 18.025 22.975L17.255 23.185V14.82H21.7V31.725C21.7 34.0817 21.28 35.9833 20.44 37.43C19.6 38.8767 18.3167 39.9383 16.59 40.615C14.8867 41.2917 12.7283 41.63 10.115 41.63ZM11.69 29.415C12.5533 29.415 13.335 29.2283 14.035 28.855C14.735 28.4583 15.2833 27.8983 15.68 27.175C16.1 26.4517 16.31 25.5767 16.31 24.55V23.535C16.31 22.5317 16.0883 21.6917 15.645 21.015C15.225 20.315 14.665 19.79 13.965 19.44C13.265 19.0667 12.5183 18.88 11.725 18.88C10.7917 18.88 9.96333 19.1017 9.24 19.545C8.51667 19.9883 7.95667 20.6067 7.56 21.4C7.16333 22.1933 6.965 23.1267 6.965 24.2C6.965 25.2967 7.16333 26.2417 7.56 27.035C7.98 27.805 8.54 28.4 9.24 28.82C9.96333 29.2167 10.78 29.415 11.69 29.415Z" fill="#EA1D2C"/>
<path d="M53.44 34.14V31.13H60.58C61.9567 31.13 63.0183 30.745 63.765 29.975C64.535 29.1817 64.92 28.1317 64.92 26.825C64.92 25.495 64.5467 24.4567 63.8 23.71C63.0533 22.94 61.98 22.555 60.58 22.555H53.44V20.315H60.09C61.7233 20.315 63.1583 20.5133 64.395 20.91C65.655 21.3067 66.635 21.9717 67.335 22.905C68.0583 23.815 68.42 25.0633 68.42 26.65V27.14C68.42 28.6333 68.1167 29.905 67.51 30.955C66.9033 31.9817 65.9817 32.775 64.745 33.335C63.5083 33.8717 61.9567 34.14 60.09 34.14H53.44ZM50.71 34.14V8.31H54.14V34.14H50.71ZM53.44 21.925V19.685H59.635C61.0817 19.685 62.1433 19.3 62.82 18.53C63.52 17.7367 63.87 16.7333 63.87 15.52C63.87 14.2833 63.52 13.28 62.82 12.51C62.1433 11.7167 61.0817 11.32 59.635 11.32H53.44V8.31H59.04C61.84 8.31 63.9283 8.905 65.305 10.095C66.6817 11.2617 67.37 12.9533 67.37 15.17V15.66C67.37 17.2233 67.02 18.4717 66.32 19.405C65.62 20.315 64.64 20.9683 63.38 21.365C62.1433 21.7383 60.6967 21.925 59.04 21.925H53.44ZM74.0091 34V15.31H76.6691V23.01H76.5291C76.5291 20.28 77.1241 18.285 78.3141 17.025C79.5274 15.7417 81.3357 15.1 83.7391 15.1H84.3691V18.11H83.1791C81.3124 18.11 79.8774 18.6117 78.8741 19.615C77.8707 20.595 77.3691 22.0183 77.3691 23.885V34H74.0091ZM96.1045 34.63C94.4711 34.63 93.0595 34.35 91.8695 33.79C90.6795 33.23 89.7111 32.495 88.9645 31.585C88.2178 30.6517 87.6578 29.6133 87.2845 28.47C86.9345 27.3267 86.7595 26.16 86.7595 24.97V24.34C86.7595 23.1267 86.9345 21.9483 87.2845 20.805C87.6578 19.6617 88.2178 18.635 88.9645 17.725C89.7111 16.7917 90.6561 16.0567 91.7995 15.52C92.9661 14.96 94.3311 14.68 95.8945 14.68C97.9245 14.68 99.5928 15.1233 100.899 16.01C102.229 16.8733 103.209 17.9933 103.839 19.37C104.493 20.7467 104.819 22.2167 104.819 23.78V25.285H88.2295V22.765H102.369L101.599 24.13C101.599 22.8 101.389 21.6567 100.969 20.7C100.549 19.72 99.9195 18.9617 99.0795 18.425C98.2395 17.8883 97.1778 17.62 95.8945 17.62C94.5645 17.62 93.4561 17.9233 92.5695 18.53C91.7061 19.1367 91.0528 19.965 90.6095 21.015C90.1895 22.065 89.9795 23.2783 89.9795 24.655C89.9795 25.985 90.1895 27.1867 90.6095 28.26C91.0528 29.31 91.7295 30.15 92.6395 30.78C93.5495 31.3867 94.7045 31.69 96.1045 31.69C97.5745 31.69 98.7645 31.3633 99.6745 30.71C100.608 30.0567 101.168 29.2983 101.354 28.435H104.504C104.248 29.7183 103.734 30.8267 102.964 31.76C102.194 32.6933 101.226 33.405 100.059 33.895C98.8928 34.385 97.5745 34.63 96.1045 34.63ZM120.895 34V28.4H120.335V21.925C120.335 20.6417 119.997 19.6733 119.32 19.02C118.667 18.3667 117.698 18.04 116.415 18.04C115.692 18.04 114.945 18.0517 114.175 18.075C113.405 18.0983 112.67 18.1217 111.97 18.145C111.27 18.1683 110.663 18.2033 110.15 18.25V15.31C110.663 15.2633 111.2 15.2283 111.76 15.205C112.343 15.1583 112.938 15.135 113.545 15.135C114.152 15.1117 114.735 15.1 115.295 15.1C117.208 15.1 118.772 15.3333 119.985 15.8C121.198 16.2433 122.097 16.9783 122.68 18.005C123.263 19.0317 123.555 20.42 123.555 22.17V34H120.895ZM114.77 34.49C113.37 34.49 112.157 34.2567 111.13 33.79C110.127 33.3 109.345 32.6 108.785 31.69C108.248 30.78 107.98 29.6833 107.98 28.4C107.98 27.07 108.272 25.9617 108.855 25.075C109.462 24.1883 110.337 23.5233 111.48 23.08C112.623 22.6133 114 22.38 115.61 22.38H120.685V24.9H115.47C114.117 24.9 113.078 25.2267 112.355 25.88C111.632 26.5333 111.27 27.3733 111.27 28.4C111.27 29.4267 111.632 30.255 112.355 30.885C113.078 31.515 114.117 31.83 115.47 31.83C116.263 31.83 117.022 31.69 117.745 31.41C118.468 31.1067 119.063 30.6167 119.53 29.94C120.02 29.24 120.288 28.2833 120.335 27.07L121.245 28.4C121.128 29.73 120.802 30.85 120.265 31.76C119.752 32.6467 119.028 33.3233 118.095 33.79C117.185 34.2567 116.077 34.49 114.77 34.49ZM137.527 34.63C136.197 34.63 134.972 34.385 133.852 33.895C132.732 33.405 131.752 32.7167 130.912 31.83C130.095 30.9433 129.454 29.9167 128.987 28.75C128.544 27.5833 128.322 26.3233 128.322 24.97V24.34C128.322 23.01 128.544 21.7617 128.987 20.595C129.43 19.4283 130.049 18.4017 130.842 17.515C131.659 16.6283 132.615 15.94 133.712 15.45C134.832 14.9367 136.069 14.68 137.422 14.68C138.845 14.68 140.14 14.9833 141.307 15.59C142.474 16.1733 143.43 17.095 144.177 18.355C144.924 19.615 145.344 21.2483 145.437 23.255L144.037 21.015V8.45H147.397V34H144.737V25.705H145.717C145.624 27.8283 145.18 29.555 144.387 30.885C143.594 32.1917 142.59 33.1483 141.377 33.755C140.187 34.3383 138.904 34.63 137.527 34.63ZM137.982 31.69C139.125 31.69 140.164 31.4333 141.097 30.92C142.03 30.4067 142.777 29.6717 143.337 28.715C143.897 27.735 144.177 26.5917 144.177 25.285V23.675C144.177 22.3917 143.885 21.3067 143.302 20.42C142.742 19.51 141.984 18.8217 141.027 18.355C140.094 17.865 139.067 17.62 137.947 17.62C136.71 17.62 135.614 17.9117 134.657 18.495C133.724 19.0783 132.989 19.895 132.452 20.945C131.939 21.995 131.682 23.2317 131.682 24.655C131.682 26.0783 131.95 27.3267 132.487 28.4C133.024 29.45 133.77 30.2667 134.727 30.85C135.684 31.41 136.769 31.69 137.982 31.69Z" fill="black"/>
<path d="M153.573 25.705V8.45H158.543V25.705H153.573ZM153.188 34V28.82H158.928V34H153.188Z" fill="#EA1D2C"/>
</svg>
